<svg width="256" height="125" viewBox="0 0 256 125" fill="none" xmlns="http://www.w3.org/2000/svg">
<path d="M63.4257 23.8892H44.6377L48.5897 0H20.9907L17.0388 23.8892H3.49846L0 44.6624H13.6051L5.05333 96.5955C1.55487 116.07 12.7268 123.601 33.1706 123.601H47.6178L47.9418 101.789C46.5165 102.048 43.5364 102.698 40.9449 102.698C35.4381 102.698 31.8748 100.62 33.1706 92.9602L41.2041 44.6624H59.9921L63.4257 23.8892Z" fill="url(#paint0_linear)"/>
<path d="M47.6178 123.601H76.7716L104.241 60.8915H105.472L112.21 123.601H141.428L182.496 23.8892H154.637L130.868 90.4934H130.026L124.843 23.8892H97.4384L70.2282 90.8829H69.3212L65.0453 23.8892H37.1225L47.6178 123.601Z" fill="url(#paint1_linear)"/>
<path d="M255.978 51.7744C256.625 33.4031 243.215 22.0427 217.43 22.0427C192.681 22.0427 174.606 33.1434 171.496 51.7744C168.905 67.2894 177.133 77.5462 195.986 81.3762L212.571 84.8168C221.058 86.6344 223.973 89.1662 223.325 93.7103C222.354 100.202 214.32 105.265 204.084 105.071C194.884 105.006 189.442 100.851 188.989 92.7366L162.038 94.1647C161.519 113.055 176.031 125 203.047 125C228.314 125 248.268 112.536 251.507 93.3857C253.904 78.3901 245.482 69.2369 226.824 65.277L209.332 61.6417C200.456 59.6942 198.059 56.9677 198.836 52.7481C199.808 46.2565 207.841 41.6474 216.976 41.6474C226.046 41.6474 230.517 46.7758 230.905 53.3324L255.978 51.7744Z" fill="url(#paint2_linear)"/>
<defs>
<linearGradient id="paint0_linear" x1="78.5965" y1="-4.38596" x2="93.8201" y2="142.434" gradientUnits="userSpaceOnUse">
<stop offset="0.0175425" stop-color="#F38C8C"/>
<stop offset="0.646297" stop-color="#F54949"/>
<stop offset="1" stop-color="#951B1B"/>
</linearGradient>
<linearGradient id="paint1_linear" x1="78.5965" y1="-4.38596" x2="93.8201" y2="142.434" gradientUnits="userSpaceOnUse">
<stop offset="0.0175425" stop-color="#F38C8C"/>
<stop offset="0.646297" stop-color="#F54949"/>
<stop offset="1" stop-color="#951B1B"/>
</linearGradient>
<linearGradient id="paint2_linear" x1="78.5965" y1="-4.38596" x2="93.8201" y2="142.434" gradientUnits="userSpaceOnUse">
<stop offset="0.0175425" stop-color="#F38C8C"/>
<stop offset="0.646297" stop-color="#F54949"/>
<stop offset="1" stop-color="#951B1B"/>
</linearGradient>
</defs>
</svg>
